<svg width="64" height="64" viewBox="0 0 64 64" fill="none" xmlns="http://www.w3.org/2000/svg">
<path d="M48.881 11.1356C48.4222 10.4332 47.7522 10.413 46.9886 10.39C46.902 10.3874 46.8143 10.3848 46.7256 10.3811C46.658 10.378 46.5834 10.3792 46.5055 10.3804C46.1958 10.3854 45.8336 10.3912 45.6511 10.131C45.4395 9.82934 45.4596 9.24634 45.4761 8.76506C45.4814 8.61298 45.4863 8.47096 45.4834 8.35128C45.4536 7.23326 45.3916 6.04563 44.96 5.6486C44.6346 5.35072 43.661 5.39199 42.7631 5.43005C42.472 5.44239 42.1889 5.45439 41.9384 5.45439H22.8262C22.4414 5.45439 22.038 5.42305 21.6417 5.39227C20.8694 5.33228 20.1238 5.27436 19.5944 5.45439C18.826 5.71693 18.774 7.09656 18.725 8.39568L18.7224 8.46558C18.6813 9.53805 18.4155 10.3656 17.5346 10.2823C16.5101 10.1869 15.4906 10.1568 15.0274 11.084C14.4803 12.1811 14.5932 13.3295 14.7952 15.3865C14.8241 15.6803 14.8548 15.9927 14.8856 16.3261H49.1765C49.1961 16.0824 49.2169 15.8419 49.2375 15.6052C49.398 13.7545 49.538 12.1421 48.881 11.1356Z" fill="#8047F8"/>
<path fill-rule="evenodd" clip-rule="evenodd" d="M17.5561 18.3662C18.0917 25.6146 18.6214 32.8712 19.1511 40.1279L19.1514 40.1324C19.439 44.0725 19.7267 48.0127 20.0152 51.9516H21.1094C21.1839 52.5682 21.2692 53.3294 21.3592 54.1319C21.5417 55.761 21.7434 57.5607 21.913 58.6666H22.034C23.1485 58.2589 30.853 54.9657 30.8564 41.8548C30.855 41.8174 30.8563 41.78 30.8601 41.7429H28.9567C28.8646 41.742 28.7752 41.7113 28.7025 41.6554C28.6298 41.5994 28.5776 41.5214 28.5541 41.4333C28.3686 40.9751 28.219 40.5035 28.1067 40.0226C26.987 40.6551 26.0977 41.6208 25.5658 42.7821C25.0608 41.5927 24.9947 40.2657 25.3791 39.033C25.7634 37.8003 26.5737 36.7403 27.6683 36.0382C27.6824 32.2124 29.1149 28.5244 31.6945 25.6724L31.7347 25.637C31.8097 25.5722 31.9057 25.5361 32.0053 25.5353C32.0628 25.5358 32.1197 25.5481 32.1722 25.5714C32.2254 25.595 32.273 25.6294 32.3118 25.6724C34.9216 28.5283 36.3464 32.2517 36.3022 36.1001C37.4173 36.7826 38.2441 37.8418 38.6291 39.0813C39.0141 40.3207 38.9312 41.6561 38.3958 42.8396C37.8667 41.6764 36.9767 40.7099 35.8548 40.0801C35.7863 40.5462 35.6601 41.0021 35.4791 41.4378C35.4164 41.6235 35.2912 41.7429 35.1659 41.7429H33.136C33.1392 41.7651 33.1415 41.7875 33.1428 41.8099L33.1435 41.8151V41.8259C33.1443 41.8452 33.1443 41.8645 33.1436 41.8839C33.1714 55.3712 41.3629 58.4325 42.0534 58.6666H42.2896C42.3499 57.6044 42.5462 56.1385 42.7375 54.7095C42.8694 53.7246 42.9989 52.7573 43.08 51.9516H44.1868C44.541 46.9902 44.9054 42.0426 45.2697 37.0949L45.2699 37.0922L45.27 37.0907C45.7361 30.7621 46.2022 24.4332 46.6471 18.0749H17.627C17.5435 18.0912 17.5492 18.2279 17.5561 18.3662ZM32.0053 25.5353L32.0032 25.5353H32.0076L32.0053 25.5353Z" fill="#8047F8"/>
</svg>
