<svg width="500" height="500" viewBox="0 0 500 500" fill="none" xmlns="http://www.w3.org/2000/svg">
<path d="M232 401.9C327.766 401.9 405.4 357.084 405.4 301.8C405.4 246.516 327.766 201.7 232 201.7C136.234 201.7 58.6001 246.516 58.6001 301.8C58.6001 357.084 136.234 401.9 232 401.9Z" fill="#272221"/>
<path d="M232 402.5C136 402.5 58 357.3 58 301.7C58 246.1 136.1 201 232 201C327.9 201 406 246.2 406 301.7C406 357.2 328 402.5 232 402.5ZM232 202.3C136.7 202.3 59.2 246.9 59.2 301.8C59.2 356.7 136.7 401.3 232 401.3C327.3 401.3 404.8 356.7 404.8 301.8C404.8 246.9 327.3 202.3 232 202.3Z" fill="#272221"/>
<path d="M232 399.1C327.766 399.1 405.4 354.284 405.4 299C405.4 243.716 327.766 198.9 232 198.9C136.234 198.9 58.6001 243.716 58.6001 299C58.6001 354.284 136.234 399.1 232 399.1Z" fill="white"/>
<path d="M232 399.9C136 399.9 57.8 354.6 57.8 299C57.8 243.4 136 198.1 232 198.1C328 198.1 406.2 243.3 406.2 299C406.2 354.7 328.1 399.9 232 399.9ZM232 199.6C136.8 199.6 59.4001 244.2 59.4001 299C59.4001 353.8 136.9 398.3 232 398.3C327.1 398.3 404.7 353.7 404.7 299C404.7 244.3 327.2 199.6 232 199.6Z" fill="#272221"/>
<path d="M232 386.4C148.8 386.4 81 347.2 81 299C81 250.8 148.7 211.6 232 211.6C315.3 211.6 383 250.8 383 299.1C383 347.4 315.3 386.4 232 386.4ZM232 212.8C149.4 212.8 82.3 251.5 82.3 299C82.3 346.5 149.5 385.2 232 385.2C314.5 385.2 381.7 346.6 381.7 299C381.7 251.4 314.6 212.8 232 212.8Z" fill="#E6E5E5"/>
<path d="M150.2 265.3C150.2 265.3 124.8 268.8 103.2 256.6C81.6 244.4 77.1 228.4 80.6 218.8C84.1 209.2 101.8 202.4 118.4 210.8C135 219.2 120 193.9 99.6 195.1C79.2 196.3 58 204.3 59 217.2C60 230.1 68.9 252 85.5 262.5C102.2 273.1 126.6 280.8 140 279.2C153.4 277.6 162.3 279.2 159.3 272.6C156.3 266 149.4 263.4 149.4 263.4" fill="#272221"/>
<path d="M136.4 280C122.7 280 100.9 272.9 85.3 263C67.3 251.6 59.3 228.8 58.4 217.1C58.2 213.6 59.5 210.1 61.9 207.6C68.1 200.5 83 195.3 99.7 194.3C112.7 193.6 123.5 203.1 125.9 208.7C126.8 210.8 126.3 211.9 125.8 212.5C124.6 213.6 122.1 213.2 118.3 211.3C109.7 207 100.1 206.3 91.9 209.5C86.7 211.6 82.8 215 81.4 218.9C77.7 229 83.2 244.3 103.7 255.9C124.9 267.9 150 264.6 150.3 264.5C150.7 264.5 151 264.8 151 265.2C151 265.5 150.8 265.8 150.5 265.9C150.2 265.9 124.7 269.3 103.1 257.1C81.9 245.1 76.4 229.1 80.2 218.5C81.8 214.3 85.9 210.5 91.5 208.3C100.1 204.9 110.1 205.6 119 210.1C122.6 211.9 124.4 212 125 211.5C125.4 211.2 125.3 210.3 124.8 209.3C122.6 204.2 112.1 195 100 195.7C83.6 196.6 69.2 201.7 63.2 208.5C61 210.8 59.9 213.9 60 217C60.9 229.3 69.6 251.3 86.2 261.8C103.1 272.6 127.3 279.9 140.2 278.4C143.6 278 146.6 277.8 149.3 277.6C154.4 277.2 158.4 277 159.3 275.5C159.7 274.9 159.5 274 159 272.8C156.1 266.6 149.6 264 149.5 264C149.2 263.9 149 263.5 149.1 263.1C149.2 262.8 149.6 262.6 150 262.7C150.3 262.8 157.1 265.5 160.2 272.2C161 273.9 161.1 275.2 160.5 276.2C159.3 278.3 155.4 278.6 149.4 279C146.7 279.2 143.7 279.4 140.4 279.8C138.9 280 137.6 280 136.4 280Z" fill="#272221"/>
<path d="M133.1 230.5C133.1 230.5 125.3 209.8 117.6 198.1C109.9 186.4 92.2 179.5 77.6 184C63 188.5 47.1 211.5 57.6 235C68.1 258.5 91 275.6 120.4 279.8C146.6 283.6 161 279.3 161 279.3L156.8 272C156.8 272 139.9 277 111.2 267.1C83.5 257.5 75.7 243.8 75.3 225C74.9 206.2 93.7 200.8 102.5 201.5C116.8 202.7 125.1 220.3 130.2 230.6L133.1 230.5Z" fill="#DBAC2C"/>
<path d="M141.1 282C134.2 282 127.2 281.5 120.3 280.5C91.6 276.4 68 259.5 57.1 235.3C52.5 225.1 52.5 213.3 57.2 203.1C61.5 193.6 69.5 185.9 77.5 183.4C91.8 179 110 185.5 118.2 197.8C125.9 209.5 133.7 230.1 133.8 230.4C133.9 230.6 133.8 230.8 133.7 231C133.6 231.2 133.4 231.3 133.2 231.3L130.4 231.5C130.1 231.5 129.9 231.4 129.8 231.2L129.2 230C124 219.5 116 203.5 102.6 202.4C97.9 202 88.5 203.6 82.3 209.5C78 213.6 75.9 218.9 76.1 225.2C76.5 240.5 81 256.1 111.6 266.7C139.7 276.5 156.6 271.7 156.8 271.6C157.1 271.5 157.4 271.6 157.5 271.9L161.7 279.2C161.8 279.4 161.8 279.6 161.7 279.7C161.6 279.9 161.5 280 161.3 280.1C161.1 280 154 282 141.1 282ZM87 183.2C83.9 183.2 80.8 183.6 77.8 184.5C70.1 186.9 62.5 194.3 58.3 203.5C53.7 213.4 53.7 224.7 58.2 234.6C68.9 258.4 92.2 275 120.5 279.1C142.9 282.3 156.8 279.6 160.1 278.8L156.5 272.7C153.5 273.4 136.9 276.6 111 267.6C85.7 258.9 75.2 246.5 74.7 225C74.5 218.2 76.8 212.6 81.3 208.3C87.5 202.5 96.6 200.3 102.6 200.8C116.7 202 124.8 218.3 130.2 229.1L130.6 229.9L132.2 229.8C130.7 225.9 123.8 208.6 117.1 198.3C110.9 189.1 98.7 183.2 87 183.2Z" fill="#272221"/>
<path d="M348.3 197C348.3 204.6 344.5 218.9 337.8 235.7C329.6 256.3 316.8 280.7 301.1 300.9C283.5 313.3 261 322 236.5 322C212 322 189.5 313.3 171.8 300.9C156.1 280.7 143.3 256.3 135.1 235.7C128.4 218.9 124.6 204.6 124.6 197C124.6 169.3 174.7 146.9 236.4 146.9C298.1 146.9 348.3 169.3 348.3 197Z" fill="#272221"/>
<path d="M236.4 322.6C213.9 322.6 190.8 315.1 171.4 301.4C171.3 301.4 171.3 301.3 171.3 301.3C152.2 276.8 140.1 249.8 134.5 235.9C127.9 219.4 124 204.9 124 197C124 169 174.4 146.2 236.5 146.2C298.6 146.2 348.9 169 348.9 197C348.9 204.9 345 219.5 338.4 235.9C332.8 249.8 320.7 276.8 301.6 301.3L301.5 301.4C282.1 315 259 322.6 236.4 322.6ZM172.2 300.4C191.4 313.9 214.2 321.3 236.4 321.3C258.6 321.3 281.4 313.9 300.6 300.4C319.5 276 331.6 249.2 337.2 235.4C343.7 219.1 347.6 204.7 347.6 196.9C347.6 169.6 297.7 147.4 236.4 147.4C175.1 147.4 125.2 169.6 125.2 197C125.2 204.8 129.1 219.1 135.6 235.5C141.2 249.2 153.3 276 172.2 300.4Z" fill="#272221"/>
<path d="M373.7 159.8C373.7 169.1 369.1 186.7 360.9 207.3C350.8 232.6 335.1 262.5 315.8 287.4C294.2 302.6 266.5 313.3 236.4 313.3C206.3 313.3 178.7 302.7 157 287.4C137.7 262.6 122.1 232.6 111.9 207.3C103.7 186.7 99.1 169.1 99.1 159.8C99.1 125.8 160.5 98.2 236.4 98.2C312.3 98.2 373.7 125.8 373.7 159.8Z" fill="#DBAC2C"/>
<path d="M236.4 313.8C208.8 313.8 180.5 304.6 156.7 287.8C156.6 287.8 156.6 287.7 156.6 287.7C133.2 257.6 118.3 224.5 111.4 207.5C103.3 187.3 98.5 169.5 98.5 159.8C98.5 125.5 160.4 97.6001 236.4 97.6001C312.4 97.6001 374.3 125.5 374.3 159.8C374.3 169.5 369.5 187.3 361.4 207.5C354.6 224.5 339.6 257.6 316.3 287.7C316.3 287.8 316.2 287.8 316.2 287.8C292.4 304.6 264.1 313.8 236.4 313.8ZM157.5 286.9C181.1 303.5 209.1 312.6 236.4 312.6C263.7 312.6 291.8 303.5 315.3 286.9C338.6 256.9 353.4 224 360.2 207C368.2 186.9 373 169.3 373 159.8C373 126.2 311.7 98.9001 236.3 98.9001C160.9 98.9001 99.8 126.2 99.8 159.8C99.8 169.3 104.6 187 112.6 207C119.4 224 134.2 256.9 157.5 286.9Z" fill="#272221"/>
<path d="M236.4 221.3C312.229 221.3 373.7 193.766 373.7 159.8C373.7 125.835 312.229 98.3 236.4 98.3C160.571 98.3 99.1 125.835 99.1 159.8C99.1 193.766 160.571 221.3 236.4 221.3Z" fill="white"/>
<path d="M236.4 222.1C160.3 222.1 98.3999 194.2 98.3999 159.8C98.3999 125.4 160.3 97.5 236.4 97.5C312.5 97.5 374.4 125.5 374.4 159.8C374.4 194.1 312.6 222.1 236.4 222.1ZM236.4 99C161.1 99 99.8999 126.3 99.8999 159.8C99.8999 193.3 161.1 220.6 236.4 220.6C311.7 220.6 373 193.3 373 159.8C373 126.3 311.7 99 236.4 99Z" fill="#272221"/>
<path d="M362.3 159.8C362.3 165.3 360.3 170.6 356.7 175.7C340.8 197.5 293 213.3 236.5 213.3C180 213.3 132.2 197.5 116.3 175.7C112.6 170.7 110.7 165.4 110.7 159.8C110.7 130.3 167 106.3 236.5 106.3C306 106.3 362.3 130.2 362.3 159.8Z" fill="#E6E5E5"/>
<path d="M236.4 213.9C180.7 213.9 132.2 198.7 115.7 176C111.9 170.8 109.9 165.3 109.9 159.8C109.9 130 166.6 105.7 236.3 105.7C306 105.7 362.8 130 362.8 159.8C362.8 165.3 360.9 170.8 357 176C340.6 198.6 292.1 213.9 236.4 213.9ZM236.4 106.9C167.4 106.9 111.2 130.6 111.2 159.7C111.2 165 113.1 170.2 116.7 175.2C133 197.5 181.1 212.5 236.4 212.5C291.7 212.5 339.8 197.5 356.1 175.2C359.7 170.2 361.6 165 361.6 159.7C361.6 130.6 305.5 106.9 236.4 106.9Z" fill="#272221"/>
<path d="M356.6 175.6C340.7 197.4 292.9 213.2 236.4 213.2C179.9 213.2 132.1 197.4 116.2 175.6C132.2 153.9 180 138 236.4 138C292.8 138 340.7 153.9 356.6 175.6Z" fill="#272221"/>
<path d="M236.4 213.9C180.7 213.9 132.2 198.7 115.7 176C115.5 175.8 115.5 175.4 115.7 175.2C132.2 152.5 180.7 137.3 236.4 137.3C292.1 137.3 340.6 152.5 357.1 175.2C357.3 175.4 357.3 175.8 357.1 176C340.6 198.7 292.1 213.9 236.4 213.9ZM117.1 175.6C133.7 197.7 181.5 212.5 236.4 212.5C291.3 212.5 339.2 197.7 355.7 175.6C339.1 153.5 291.3 138.7 236.3 138.7C181.3 138.7 133.7 153.5 117.1 175.6Z" fill="#272221"/>
<path d="M443.4 206.6C440.8 203.7 436.5 202.7 432.7 203.3C428.9 203.9 425.1 205.8 421.7 208C411.8 214.5 404.3 223.2 396.5 231.9C388.7 240.6 381.1 249.3 373.5 258.1C357.5 276.5 351.9 291.1 341.9 298.4C331.9 305.7 320.5 302.3 299.1 312.3C277.7 322.3 264.2 331 271.7 347.4C280 365.7 304.4 364.5 322 357.5C339.9 350.4 350.5 337.7 352 328C353.5 318.3 348.5 313.6 352.2 304.6C353.6 301.2 363.2 282 398.7 254.1L402.3 251.3C412.1 243.6 421.8 235.9 431.5 228C437 223.5 451 215.4 443.8 206.9L443.4 206.6Z" fill="white"/>
<path d="M298.6 363C286.6 363 275.8 358.7 270.8 347.7C262.8 330 278.7 320.9 298.7 311.6C307 307.8 315.8 305.1 324.9 303.6C331.4 302.4 336.6 301.4 341.4 297.8C346.8 293.9 350.9 287.8 356.1 280.1C361.2 272.3 366.8 264.8 372.9 257.6L375.9 254.1C382.4 246.6 389.1 238.9 395.8 231.4L397.3 229.7C404.5 221.7 411.9 213.5 421.2 207.3C424.1 205.4 428.1 203.1 432.5 202.4C436.9 201.7 441.3 203.2 443.9 206L444.2 206.3C445.8 208 446.6 210.3 446.3 212.6C445.7 218 439.3 222.8 434.6 226.3C433.5 227.1 432.6 227.8 431.7 228.5C421.7 236.7 411.8 244.6 402.5 251.8L398.9 254.6C362.2 283.4 353.5 302.7 352.7 304.8C350.7 309.6 351.3 313.1 352 317.1C352.8 320.7 353 324.4 352.5 328C350.5 341.1 335.3 352.8 322 358.1C314.6 361.2 306.7 362.9 298.6 363ZM434.6 203.9C434 203.9 433.3 203.9 432.7 204C428.6 204.6 424.8 206.8 422 208.6C412.9 214.6 405.8 222.4 398.4 230.7L396.9 232.4C390.2 239.9 383.5 247.6 377 255.1L374 258.6C368 265.7 362.4 273.1 357.3 280.9C352 288.7 347.8 294.9 342.2 299C337.1 302.7 331.8 303.7 325.1 305C316.1 306.5 307.4 309.2 299.2 313C275.8 323.8 265.3 332.1 272.1 347.1C279.8 364.2 303.1 364.1 321.4 356.8C339.7 349.5 349.6 336.6 351 327.9C351.5 324.4 351.3 320.9 350.5 317.5C349.8 313.5 349.1 309.6 351.3 304.4C352.2 302.3 361 282.6 398 253.6L401.6 250.8C410.8 243.5 420.8 235.7 430.8 227.5C431.6 226.8 432.6 226.1 433.7 225.3C438.2 222 444.3 217.4 444.8 212.7C445 210.8 444.3 208.9 443 207.6L442.8 207.3C440.6 205 437.7 203.8 434.6 203.9Z" fill="#272221"/>
<path d="M343.9 314.3C342.8 313.3 297.4 351.1 273.7 344.8C273.7 344.8 271 352.7 292.2 356.5C313.4 360.3 333 347.7 341 339.8C349 331.9 351.2 321.2 343.9 314.3Z" fill="#E6E5E5"/>
<path d="M209.7 313.9C206.1 323.4 195.5 333 181 330.6C153.7 326 151.2 302.7 154.8 293.2C158.4 283.7 171.7 285.2 186.9 291C202.1 296.8 213.3 304.4 209.7 313.9Z" fill="#E6E5E5"/>
<path d="M185.6 331.5C184 331.5 182.4 331.4 180.9 331.1C166.8 328.7 160 321.5 156.8 315.8C152.1 307.7 152.2 298.2 154.2 292.8C156 288.1 160.1 285.7 166.4 285.6C171.7 285.5 178.7 287.1 187 290.2C205.4 297.2 213.4 305.4 210.2 314C206.9 323 197.9 331.5 185.6 331.5ZM166.8 286.9H166.4C160.6 287 156.8 289.2 155.2 293.4C153.3 298.5 153.2 307.5 157.7 315.4C162.2 323.3 170.2 328.3 181 330.1C195.1 332.5 205.4 323.3 209.1 313.8C212.9 303.9 199 296.2 186.6 291.6C178.6 288.4 172 286.9 166.8 286.9Z" fill="#272221"/>
<path d="M209.7 313.9C206.1 323.4 188.4 322.7 173.3 317C158.2 311.3 151.2 302.7 154.8 293.2C158.4 283.7 172.2 283.4 187.3 289.1C202.4 294.8 213.3 304.4 209.7 313.9Z" fill="white"/>
<path d="M194.1 321.9C186.9 321.7 179.7 320.3 173 317.7C165.3 314.8 159.7 311.2 156.4 307C153.1 303.1 152.2 297.7 154 292.9C155.8 288.1 160.1 285.3 166.6 284.7C172.4 284.1 179.6 285.4 187.5 288.4C204.8 295 213.8 305.1 210.4 314.2C208.3 319.6 201.9 321.9 194.1 321.9ZM169.3 286C168.4 286 167.5 286 166.7 286.1C162.7 286.5 157.4 288.1 155.4 293.4C153.7 297.7 154.5 302.5 157.5 306C160.6 309.9 166.1 313.5 173.5 316.3C188.1 321.8 205.5 322.8 209 313.7C211.4 307.4 207 297.4 187 289.8C181.4 287.5 175.4 286.2 169.3 286Z" fill="#272221"/>
<path d="M156.2 290.4C156.2 290.4 165.3 295.5 167.6 298C169.9 300.5 171.6 301.1 174.2 302.6C176.8 304.1 186.9 307.6 190.1 310.2C193.3 312.8 193.2 313.7 197.7 314.2C201.2 314.7 204.7 315.4 208.2 316.5C209 315.4 209.6 314.2 210.1 313C210.1 313 203 313.8 201.5 311.9C200.1 310 198.1 308.8 195.8 308.3C193.5 308 190.7 307.1 189.2 305.4C187.7 303.7 184.1 300.5 179.9 300.3C175.7 300.1 174.5 297.8 171.5 295.4C168.5 293 167 293.4 164.7 291.8C162.5 290.5 160.2 289.3 157.9 288.3C157.9 288.2 157 289.3 156.2 290.4Z" fill="#272221"/>
<path d="M208.3 317H208.1C204.7 316 201.3 315.2 197.8 314.8C194.2 314.4 193.3 313.7 191.7 312.2C191.2 311.8 190.7 311.3 189.9 310.7C187.9 309.1 183.2 307.2 179.4 305.6C177.6 304.9 175.8 304.1 174 303.2C173.4 302.9 172.9 302.6 172.4 302.3C170.4 301.3 168.7 300 167.2 298.4C165 296.1 156 291 156 291C155.8 290.9 155.7 290.8 155.7 290.6C155.7 290.4 155.7 290.3 155.8 290.1C156.6 289 157.5 287.9 157.5 287.9C157.7 287.7 158 287.6 158.2 287.7C160.6 288.8 162.9 290 165.1 291.3C165.9 291.8 166.7 292.2 167.6 292.5C169.2 293 170.7 293.8 171.9 294.9C172.6 295.5 173.2 296 173.7 296.6C175.5 298.4 176.9 299.6 179.9 299.7C184.5 299.9 188.2 303.5 189.6 305C191.3 306.6 193.5 307.6 195.9 307.8C198.3 308.2 200.5 309.6 202 311.6C203 312.8 207.5 312.7 210.1 312.5C210.4 312.5 210.7 312.7 210.7 313C210.7 313.1 210.7 313.1 210.7 313.2C210.2 314.5 209.6 315.8 208.8 316.9C208.7 316.9 208.5 317 208.3 317ZM157.1 290.2C159.2 291.4 166.1 295.4 168.1 297.6C169.5 299.1 171.2 300.3 173 301.2L174.6 302.1C176.3 303 178 303.8 179.8 304.4C183.7 306 188.5 308 190.6 309.7C191.4 310.3 191.9 310.8 192.4 311.3C194 312.7 194.6 313.3 197.8 313.6C201.2 314.1 204.6 314.8 207.9 315.8C208.4 315.1 208.8 314.4 209.1 313.7C207 313.8 202.3 314 200.9 312.3C199.6 310.5 197.7 309.3 195.6 309C194.5 308.9 190.7 308.2 188.6 305.9C187.3 304.5 183.8 301.1 179.7 301C176.3 300.9 174.6 299.3 172.8 297.5C172.3 297 171.7 296.4 171 295.9C169.8 294.9 168.5 294.1 167 293.7C166 293.4 165.1 292.9 164.2 292.4C162.2 291.2 160.1 290.1 157.9 289.1C157.9 289.2 157.5 289.7 157.1 290.2Z" fill="#272221"/>
<path d="M156.2 311.7C157.3 320.4 153.1 332.1 141 336.1C118.2 343.6 106.8 326.8 105.7 318.1C104.6 309.4 115.4 305.1 129.4 303.4C143.4 301.7 155.1 303 156.2 311.7Z" fill="#E6E5E5"/>
<path d="M130.1 338.5C125.3 338.6 120.6 337.2 116.5 334.7C109.6 330.4 105.8 323.1 105.2 318.2C104.7 313.9 106.8 310.4 111.7 307.7C115.7 305.5 121.7 303.9 129.4 302.9C146.3 300.8 155.8 303.8 156.8 311.7C158 320.9 153.6 332.6 141.2 336.7C137.5 337.8 133.8 338.5 130.1 338.5ZM138.9 303.2C135.7 303.2 132.6 303.4 129.4 303.9C121.8 304.9 116 306.4 112.1 308.6C107.7 311 105.7 314.2 106.2 318.1C106.8 322.8 110.4 329.7 117 333.9C123.6 338.1 131.8 338.7 140.8 335.7C152.6 331.8 156.8 320.6 155.7 311.8C154.8 305.1 147.3 303.2 138.9 303.2Z" fill="#272221"/>
<path d="M156.2 311.7C157.3 320.4 143.5 327.1 129.5 328.8C115.5 330.5 106.8 326.8 105.7 318C104.6 309.2 115 303.4 128.9 301.7C142.8 300 155.1 303 156.2 311.7Z" fill="white"/>
<path d="M123.2 330C119.5 330.1 115.9 329.5 112.5 328.1C108.4 326.4 105.5 322.6 105 318.2C104.4 313.8 106.6 309.8 111.3 306.7C115.5 303.9 121.6 301.9 128.9 301C144.9 299 155.9 303.1 157 311.6C157.6 316 154.8 320.1 148.9 323.5C143.9 326.4 136.9 328.6 129.6 329.5C127.5 329.8 125.3 330 123.2 330ZM136.7 302C134.1 302 131.6 302.2 129 302.5C122 303.4 116.1 305.3 112.1 307.9C109.2 309.8 105.8 313.1 106.4 317.9C106.8 321.8 109.4 325.2 113.1 326.6C117 328.4 122.7 328.8 129.4 328C136.5 327.1 143.3 325 148.1 322.2C151.8 320 156 316.5 155.4 311.8C154.8 307.1 149.4 302 136.7 302Z" fill="#272221"/>
<path d="M105.7 315.4C105.7 315.4 114.7 315.6 117.5 316.6C120.3 317.6 121.8 317.3 124.5 317.5C127.2 317.7 136.2 316.1 139.8 316.9C143.4 317.7 143.6 318.4 147.2 316.9C150.1 315.8 153.1 315 156.1 314.4C156.2 313.3 156.2 312.1 156.1 311C156.1 311 151 314.5 149.1 313.7C147.3 312.8 145.2 312.7 143.3 313.3C141.3 314.1 139.1 314.3 137 313.8C135.1 313.1 131.1 312.1 127.8 313.7C124.5 315.3 122.7 314 119.4 313.3C116.1 312.6 115.2 313.6 112.7 313.3C110.5 313.2 108.3 313.2 106 313.3C106.2 312.9 105.8 314.2 105.7 315.4Z" fill="#272221"/>
<path d="M143.9 318.1C143.1 318.1 142.4 317.9 141.6 317.7C141.1 317.6 140.4 317.4 139.6 317.2C137.4 316.8 133 317.2 129.5 317.5C127.8 317.7 126.1 317.8 124.4 317.8H122.8C120.9 317.9 119 317.6 117.2 317C114.5 316.1 105.6 315.9 105.5 315.9C105.4 315.9 105.2 315.8 105.1 315.7C105 315.6 105 315.4 105 315.3C105.2 314.2 105.4 313 105.4 312.9C105.4 312.7 105.6 312.5 105.9 312.5C108.1 312.4 110.4 312.4 112.6 312.5C113.4 312.6 114.2 312.5 115 312.4C116.4 312.1 117.9 312.2 119.3 312.5C120.1 312.7 120.7 312.9 121.4 313C123.5 313.6 125.1 314 127.4 312.9C131 311.2 135.3 312.4 137 313C139 313.5 141.1 313.4 142.9 312.5C144.9 311.8 147.2 312 149.1 312.9C150.3 313.4 153.8 311.6 155.7 310.3C155.8 310.2 156 310.2 156.2 310.2C156.4 310.3 156.5 310.4 156.5 310.6C156.7 311.8 156.7 313 156.5 314.2C156.5 314.4 156.3 314.6 156.1 314.6C153.1 315.2 150.1 316 147.3 317.1C146.3 317.8 145.1 318 143.9 318.1ZM137.2 316C138.1 316 139 316.1 139.9 316.2C140.7 316.4 141.4 316.5 141.9 316.7C143.7 317.2 144.4 317.3 147 316.3C149.8 315.3 152.7 314.4 155.6 313.8C155.7 313.1 155.7 312.4 155.7 311.7C154.2 312.7 150.6 314.7 148.9 314C147.2 313.2 145.3 313 143.5 313.6C142.6 313.9 139.4 315 136.9 314.1C135.3 313.5 131.3 312.4 128.1 313.9C125.4 315.2 123.5 314.7 121.4 314.1C120.8 313.9 120.1 313.7 119.4 313.6C118.1 313.3 116.8 313.3 115.5 313.5C114.6 313.7 113.7 313.7 112.8 313.6C110.7 313.5 108.7 313.5 106.6 313.6C106.5 313.9 106.4 314.4 106.4 315C108.5 315.1 115.4 315.3 117.8 316.2C119.5 316.8 121.3 317 123 317H124.6C126.3 317 127.9 316.9 129.6 316.7C132 316.3 134.9 316 137.2 316Z" fill="#272221"/>
<path d="M194.4 334C195.7 344.6 190.6 358.8 175.9 363.7C148.2 372.8 134.3 352.4 133 341.7C131.7 331 144.9 325.9 161.8 323.8C178.7 321.7 193 323.4 194.4 334Z" fill="#E6E5E5"/>
<path d="M162.6 366.6C156.7 366.7 151 365.1 146 362C137.6 356.7 133 347.9 132.2 341.9C131 332.1 140.8 325.9 161.6 323.3C182.4 320.7 193.7 324.4 194.9 334C196.3 345.2 191 359.4 175.9 364.4C171.7 365.8 167.1 366.6 162.6 366.6ZM173.3 323.6C169.4 323.6 165.6 323.9 161.8 324.4C148.1 326.1 132.1 330.5 133.5 341.6C134.2 347.3 138.7 355.8 146.7 360.8C154.7 365.8 164.7 366.6 175.6 363C190 358.3 195 344.6 193.7 334C192.7 326 183.6 323.6 173.3 323.6Z" fill="#272221"/>
<path d="M194.4 334C195.7 344.6 178.9 352.7 161.9 354.8C144.9 356.9 134.2 352.3 132.9 341.7C131.6 331.1 144.2 324 161.2 321.8C178.2 319.6 193 323.4 194.4 334Z" fill="white"/>
<path d="M154.3 356.1C141.3 356.1 133.3 351.1 132.2 341.8C130.9 331.4 142 323.5 161.1 321.1C180.5 318.7 193.8 323.7 195.1 333.9C195.8 339.2 192.4 344.1 185.4 348.2C179.4 351.7 170.8 354.4 162 355.5C159.4 355.9 156.9 356.1 154.3 356.1ZM170.6 322C167.5 322 164.4 322.2 161.3 322.6C143.3 324.9 132.5 332.3 133.7 341.6C135 351.6 145.2 356.1 161.9 354C170.5 352.9 178.8 350.3 184.7 346.9C189.2 344.3 194.4 339.9 193.7 334C192.9 328.1 186.3 322 170.6 322Z" fill="#272221"/>
<path d="M132.9 338.4C132.9 338.4 143.9 338.6 147.3 339.8C150.7 341 152.6 340.7 155.8 340.8C159 340.9 170 339.2 174.4 340C178.8 340.8 179 341.8 183.4 340C186.9 338.7 190.6 337.7 194.3 337C194.5 335.6 194.5 334.2 194.3 332.8C194.3 332.8 188.1 337 185.7 336C183.5 334.9 181 334.8 178.6 335.5C176.3 336.4 173.2 336.9 171 336C168.8 335.1 163.8 333.9 159.8 335.8C155.8 337.7 153.5 336.2 149.6 335.3C145.7 334.4 144.4 335.6 141.5 335.3C138.8 335.1 136.1 335.1 133.4 335.3C133.4 335.5 133.1 337 132.9 338.4Z" fill="#272221"/>
<path d="M179.5 341.7C178.6 341.7 177.6 341.5 176.7 341.2C176 341 175.3 340.8 174.3 340.6C171.7 340.1 166.3 340.6 162 341C159.9 341.2 157.9 341.4 155.8 341.4C155.1 341.4 154.5 341.4 153.9 341.4C151.6 341.5 149.3 341.1 147.1 340.4C143.9 339.3 133 339 132.9 339C132.7 339 132.6 338.9 132.4 338.8C132.3 338.7 132.2 338.5 132.3 338.3C132.5 336.9 132.8 335.4 132.8 335.4C132.9 335.1 133.1 334.9 133.4 334.9C136.1 334.7 138.9 334.7 141.6 334.9C142.6 335 143.6 334.9 144.5 334.8C146.2 334.5 148 334.5 149.7 334.9C150.6 335.1 151.5 335.3 152.2 335.5C154.8 336.2 156.6 336.8 159.5 335.4C163.8 333.3 169.1 334.8 171.1 335.5C173.5 336.1 176 335.9 178.3 335C180.8 334.2 183.5 334.4 185.8 335.5C187.3 336.1 191.5 333.9 193.8 332.3C194.1 332.1 194.5 332.2 194.7 332.5C194.7 332.6 194.8 332.6 194.8 332.7C195 334.2 195 335.7 194.8 337.1C194.8 337.4 194.6 337.6 194.3 337.6C190.6 338.3 187 339.3 183.5 340.6C182.3 341.4 180.9 341.7 179.5 341.7ZM171.2 339.2C172.3 339.2 173.4 339.3 174.5 339.4C175.5 339.6 176.3 339.8 177 340C179.2 340.6 180 340.8 183.2 339.5C186.6 338.2 190.1 337.2 193.7 336.5C193.8 335.6 193.8 334.8 193.8 333.9C191.9 335.1 187.6 337.5 185.5 336.7C183.4 335.7 181.1 335.5 178.9 336.2C177.8 336.6 173.9 337.9 170.8 336.7C168.9 336 164 334.6 160.1 336.5C156.8 338.1 154.6 337.4 151.9 336.7C151.1 336.5 150.3 336.3 149.5 336.1C147.9 335.7 146.3 335.7 144.7 336C143.6 336.2 142.5 336.2 141.5 336.1C139 335.9 136.5 335.9 134 336.1C133.9 336.5 133.8 337.1 133.7 337.8C136.2 337.9 144.6 338.2 147.6 339.2C149.7 339.9 151.8 340.3 154 340.2C154.6 340.2 155.2 340.2 155.9 340.3C157.1 340.3 159.3 340.1 161.9 339.9C164.9 339.6 168.4 339.2 171.2 339.2Z" fill="#272221"/>
<path d="M260.6 342C260.5 352.7 253.5 366.1 238.2 368.9C209.5 374.2 198.5 352.1 198.6 341.4C198.7 330.7 212.5 327.4 229.6 327.5C246.7 327.6 260.7 331.3 260.6 342Z" fill="#E6E5E5"/>
<path d="M229.9 370.4C219.9 370.4 213.2 366.7 209 363.3C201.4 356.9 198 347.5 198.1 341.5C198.2 331.7 208.8 326.8 229.7 327C239.1 327.1 246.6 328.2 251.9 330.3C258.2 332.8 261.4 336.8 261.3 342.1C261.2 353.3 254 366.8 238.4 369.7C235.6 370.1 232.7 370.4 229.9 370.4ZM228.6 328.2C215 328.2 199.4 330.6 199.3 341.5C199.2 347.3 202.5 356.2 209.8 362.3C217.1 368.4 226.9 370.5 238.2 368.4C253 365.6 260 352.8 260 342C260 337.3 257.1 333.7 251.4 331.4C246.3 329.3 239 328.3 229.7 328.2H228.6Z" fill="#272221"/>
<path d="M260.6 342C260.5 352.7 242.7 358.5 225.6 358.3C208.5 358.1 198.5 352.2 198.6 341.4C198.7 330.6 212.2 325.4 229.3 325.5C246.4 325.6 260.7 331.3 260.6 342Z" fill="white"/>
<path d="M226.3 359.1H225.6C216.9 359 210.1 357.5 205.3 354.5C200.6 351.9 197.8 346.9 197.9 341.5C198 331.1 210 324.7 229.4 324.9C238.2 325 246.2 326.5 251.8 329.2C258.1 332.3 261.4 336.7 261.4 342.1C261.3 353.2 243.4 359.1 226.3 359.1ZM228.6 326.3C210.9 326.3 199.5 332.2 199.4 341.4C199.3 346.4 201.6 350.4 206.1 353.2C210.6 356 217.2 357.5 225.7 357.6C242.2 357.7 259.8 352.4 259.9 342C259.9 336 255.2 332.4 251.1 330.5C245.7 327.9 238 326.4 229.3 326.3H228.6Z" fill="#272221"/>
<path d="M199.2 338.2C199.2 338.2 210.1 339.9 213.3 341.5C216.5 343.1 218.4 343.1 221.6 343.7C224.8 344.3 236 344 240.1 345.4C244.2 346.8 244.5 347.8 249.1 346.6C252.8 345.8 256.5 345.3 260.3 345C260.7 343.6 260.9 342.3 260.9 340.9C260.9 340.9 254.2 344.2 252 343C249.9 341.6 247.4 341.1 245 341.6C240.2 342.7 235.7 339.6 230.7 339.2C223.2 338.6 215.4 338.3 208.2 336.6C205.6 336.1 202.9 335.8 200.2 335.6C200.1 335.5 199.5 336.9 199.2 338.2Z" fill="#272221"/>
<path d="M245.7 347.8C244.5 347.8 243.2 347.4 242.1 346.9C241.5 346.7 240.7 346.4 239.8 346C237.3 345.1 231.9 344.9 227.6 344.8C225.5 344.8 223.5 344.6 221.4 344.4L219.5 344.1C217.2 343.9 215 343.2 212.9 342.2C209.8 340.7 199.1 338.9 199 338.9C198.8 338.9 198.7 338.8 198.6 338.6C198.5 338.5 198.5 338.3 198.5 338.1C198.9 336.7 199.4 335.3 199.4 335.3C199.5 335 199.7 334.9 200 334.9C202.7 335.1 205.4 335.4 208.1 335.9C214 337.3 220.4 337.8 226.5 338.2C227.8 338.3 229.1 338.4 230.4 338.5C232.4 338.7 234.4 339.2 236.3 339.9C239.1 340.8 241.7 341.6 244.5 341C247.1 340.5 249.7 341.1 251.9 342.5C253.3 343.3 257.7 341.6 260.2 340.4C260.4 340.3 260.6 340.3 260.8 340.4C261 340.5 261.1 340.7 261.1 340.9C261.1 342.4 260.9 343.9 260.5 345.3C260.4 345.6 260.2 345.7 259.9 345.8C256.2 346 252.5 346.6 248.8 347.3C248 347.6 246.9 347.7 245.7 347.8ZM200 337.7C202.5 338.1 210.8 339.6 213.6 341C215.5 342 217.6 342.6 219.8 342.8C220.4 342.9 221 343 221.7 343.1C223.7 343.3 225.7 343.5 227.7 343.5C232.1 343.7 237.6 343.9 240.3 344.8C241.3 345.1 242 345.4 242.7 345.7C244.8 346.6 245.6 346.9 248.9 346C252.5 345.2 256.1 344.7 259.7 344.5C259.9 343.7 260.1 342.8 260.1 341.9C258.1 342.8 253.5 344.7 251.5 343.5C249.6 342.2 247.3 341.7 245 342.1C241.9 342.8 239 341.9 236.2 341C234.4 340.4 232.5 339.9 230.5 339.7L226.6 339.4C220.4 338.9 214 338.5 208 337.1C205.5 336.6 203.1 336.3 200.6 336.1C200.4 336.5 200.1 337.1 200 337.7Z" fill="#272221"/>
</svg>
